<svg xmlns="http://www.w3.org/2000/svg" viewBox="0 0 1672 941"><path d="M 230 668 L 232 668 L 232 670 L 230 670 Z" fill="#7dfff0"/><path d="M 680 548 L 682 548 L 682 550 L 680 550 Z" fill="#7dfff0"/><path d="M 830 484 L 832 484 L 832 486 L 830 486 Z" fill="#7dfff0"/><path d="M 855 608 L 857 608 L 857 610 L 855 610 Z" fill="#7dfff0"/><path d="M 1035 624 L 1037 624 L 1037 626 L 1035 626 Z" fill="#7dfff0"/><path d="M 1120 668 L 1122 668 L 1122 670 L 1120 670 Z" fill="#7dfff0"/><path d="M 300 680 L 302 680 L 302 682 L 300 682 Z" fill="#9be7ff"/><path d="M 460 716 L 462 716 L 462 718 L 460 718 Z" fill="#9be7ff"/><path d="M 635 488 L 637 488 L 637 490 L 635 490 Z M 665 500 L 667 500 L 667 502 L 665 502 Z" fill="#9be7ff"/><path d="M 645 576 L 647 576 L 647 578 L 645 578 Z" fill="#9be7ff"/><path d="M 695 560 L 697 560 L 697 562 L 695 562 Z" fill="#9be7ff"/><path d="M 850 492 L 852 492 L 852 494 L 850 494 Z" fill="#9be7ff"/><path d="M 840 596 L 842 596 L 842 598 L 840 598 Z M 850 620 L 852 620 L 852 622 L 850 622 Z" fill="#9be7ff"/><path d="M 1010 580 L 1012 580 L 1012 582 L 1010 582 Z" fill="#9be7ff"/><path d="M 1040 648 L 1042 648 L 1042 650 L 1040 650 Z" fill="#9be7ff"/><path d="M 1125 656 L 1127 656 L 1127 658 L 1125 658 Z" fill="#9be7ff"/><path d="M 1120 704 L 1122 704 L 1122 706 L 1120 706 Z" fill="#9be7ff"/><path d="M 1175 676 L 1177 676 L 1177 678 L 1175 678 Z" fill="#9be7ff"/><path d="M 1205 692 L 1207 692 L 1207 694 L 1205 694 Z M 1220 696 L 1222 696 L 1222 698 L 1220 698 Z" fill="#9be7ff"/><path d="M 1285 636 L 1287 636 L 1287 638 L 1285 638 Z" fill="#9be7ff"/><path d="M 1330 664 L 1332 664 L 1332 666 L 1330 666 Z" fill="#9be7ff"/><path d="M 290 704 L 292 704 L 292 706 L 290 706 Z" fill="#b9a8ff"/><path d="M 665 448 L 667 448 L 667 450 L 665 450 Z" fill="#b9a8ff"/><path d="M 660 540 L 662 540 L 662 542 L 660 542 Z" fill="#b9a8ff"/><path d="M 645 560 L 647 560 L 647 562 L 645 562 Z" fill="#b9a8ff"/><path d="M 805 496 L 807 496 L 807 498 L 805 498 Z M 825 500 L 827 500 L 827 502 L 825 502 Z" fill="#b9a8ff"/><path d="M 995 608 L 997 608 L 997 610 L 995 610 Z" fill="#b9a8ff"/><path d="M 1025 636 L 1027 636 L 1027 638 L 1025 638 Z M 1020 676 L 1022 676 L 1022 678 L 1020 678 Z" fill="#b9a8ff"/><path d="M 1115 660 L 1117 660 L 1117 662 L 1115 662 Z" fill="#b9a8ff"/><path d="M 1215 656 L 1217 656 L 1217 658 L 1215 658 Z" fill="#b9a8ff"/><path d="M 1270 644 L 1272 644 L 1272 646 L 1270 646 Z" fill="#b9a8ff"/><path d="M 645 460 L 647 460 L 647 462 L 645 462 Z M 685 480 L 687 480 L 687 482 L 685 482 Z" fill="#c8ff8a"/><path d="M 665 496 L 667 496 L 667 498 L 665 498 Z" fill="#c8ff8a"/><path d="M 855 492 L 857 492 L 857 494 L 855 494 Z M 855 528 L 857 528 L 857 530 L 855 530 Z" fill="#c8ff8a"/><path d="M 995 568 L 997 568 L 997 570 L 995 570 Z M 1025 568 L 1027 568 L 1027 570 L 1025 570 Z M 980 572 L 982 572 L 982 574 L 980 574 Z M 985 620 L 987 620 L 987 622 L 985 622 Z" fill="#c8ff8a"/><path d="M 995 652 L 997 652 L 997 654 L 995 654 Z M 1005 656 L 1007 656 L 1007 658 L 1005 658 Z" fill="#c8ff8a"/><path d="M 1125 668 L 1127 668 L 1127 670 L 1125 670 Z" fill="#c8ff8a"/><path d="M 1220 676 L 1222 676 L 1222 678 L 1220 678 Z M 1190 688 L 1192 688 L 1192 690 L 1190 690 Z" fill="#c8ff8a"/><path d="M 1245 660 L 1247 660 L 1247 662 L 1245 662 Z" fill="#c8ff8a"/><path d="M 280 708 L 282 708 L 282 710 L 280 710 Z" fill="#ff6f9c"/><path d="M 490 656 L 492 656 L 492 658 L 490 658 Z" fill="#ff6f9c"/><path d="M 660 460 L 662 460 L 662 462 L 660 462 Z" fill="#ff6f9c"/><path d="M 635 540 L 637 540 L 637 542 L 635 542 Z M 675 548 L 677 548 L 677 550 L 675 550 Z" fill="#ff6f9c"/><path d="M 660 568 L 662 568 L 662 570 L 660 570 Z" fill="#ff6f9c"/><path d="M 835 428 L 837 428 L 837 430 L 835 430 Z M 830 452 L 832 452 L 832 454 L 830 454 Z" fill="#ff6f9c"/><path d="M 990 572 L 992 572 L 992 574 L 990 574 Z M 1015 584 L 1017 584 L 1017 586 L 1015 586 Z M 1010 592 L 1012 592 L 1012 594 L 1010 594 Z" fill="#ff6f9c"/><path d="M 1025 644 L 1027 644 L 1027 646 L 1025 646 Z M 1020 684 L 1022 684 L 1022 686 L 1020 686 Z" fill="#ff6f9c"/><path d="M 1035 668 L 1037 668 L 1037 670 L 1035 670 Z" fill="#ff6f9c"/><path d="M 1230 684 L 1232 684 L 1232 686 L 1230 686 Z" fill="#ff6f9c"/><path d="M 85 676 L 87 676 L 87 678 L 85 678 Z M 100 680 L 102 680 L 102 682 L 100 682 Z" fill="#ff8ad8"/><path d="M 275 704 L 277 704 L 277 706 L 275 706 Z" fill="#ff8ad8"/><path d="M 680 504 L 682 504 L 682 506 L 680 506 Z" fill="#ff8ad8"/><path d="M 695 540 L 697 540 L 697 542 L 695 542 Z" fill="#ff8ad8"/><path d="M 810 516 L 812 516 L 812 518 L 810 518 Z" fill="#ff8ad8"/><path d="M 830 428 L 832 428 L 832 430 L 830 430 Z M 835 464 L 837 464 L 837 466 L 835 466 Z" fill="#ff8ad8"/><path d="M 840 592 L 842 592 L 842 594 L 840 594 Z M 850 612 L 852 612 L 852 614 L 850 614 Z" fill="#ff8ad8"/><path d="M 1015 592 L 1017 592 L 1017 594 L 1015 594 Z" fill="#ff8ad8"/><path d="M 1030 660 L 1032 660 L 1032 662 L 1030 662 Z" fill="#ff8ad8"/><path d="M 1110 660 L 1112 660 L 1112 662 L 1110 662 Z" fill="#ff8ad8"/><path d="M 1210 680 L 1212 680 L 1212 682 L 1210 682 Z" fill="#ff8ad8"/><path d="M 1310 664 L 1312 664 L 1312 666 L 1310 666 Z M 1295 684 L 1297 684 L 1297 686 L 1295 686 Z" fill="#ff8ad8"/><path d="M 255 668 L 257 668 L 257 670 L 255 670 Z" fill="#ffab7a"/><path d="M 660 452 L 662 452 L 662 454 L 660 454 Z M 655 480 L 657 480 L 657 482 L 655 482 Z" fill="#ffab7a"/><path d="M 655 532 L 657 532 L 657 534 L 655 534 Z" fill="#ffab7a"/><path d="M 690 452 L 692 452 L 692 454 L 690 454 Z" fill="#ffab7a"/><path d="M 695 528 L 697 528 L 697 530 L 695 530 Z" fill="#ffab7a"/><path d="M 835 492 L 837 492 L 837 494 L 835 494 Z M 850 512 L 852 512 L 852 514 L 850 514 Z" fill="#ffab7a"/><path d="M 840 572 L 842 572 L 842 574 L 840 574 Z M 860 596 L 862 596 L 862 598 L 860 598 Z" fill="#ffab7a"/><path d="M 1015 532 L 1017 532 L 1017 534 L 1015 534 Z M 1025 540 L 1027 540 L 1027 542 L 1025 542 Z" fill="#ffab7a"/><path d="M 1020 556 L 1022 556 L 1022 558 L 1020 558 Z M 1025 572 L 1027 572 L 1027 574 L 1025 574 Z M 985 596 L 987 596 L 987 598 L 985 598 Z M 975 620 L 977 620 L 977 622 L 975 622 Z" fill="#ffab7a"/><path d="M 1030 628 L 1032 628 L 1032 630 L 1030 630 Z M 1015 640 L 1017 640 L 1017 642 L 1015 642 Z M 1015 644 L 1017 644 L 1017 646 L 1015 646 Z" fill="#ffab7a"/><path d="M 1040 628 L 1042 628 L 1042 630 L 1040 630 Z" fill="#ffab7a"/><path d="M 1160 644 L 1162 644 L 1162 646 L 1160 646 Z" fill="#ffab7a"/><path d="M 1165 692 L 1167 692 L 1167 694 L 1165 694 Z M 1170 704 L 1172 704 L 1172 706 L 1170 706 Z M 1170 712 L 1172 712 L 1172 714 L 1170 714 Z" fill="#ffab7a"/><path d="M 1210 676 L 1212 676 L 1212 678 L 1210 678 Z M 1215 684 L 1217 684 L 1217 686 L 1215 686 Z" fill="#ffab7a"/><path d="M 1180 692 L 1182 692 L 1182 694 L 1180 694 Z M 1200 708 L 1202 708 L 1202 710 L 1200 710 Z M 1185 712 L 1187 712 L 1187 714 L 1185 714 Z" fill="#ffab7a"/><path d="M 1290 708 L 1292 708 L 1292 710 L 1290 710 Z" fill="#ffab7a"/><path d="M 1365 668 L 1367 668 L 1367 670 L 1365 670 Z" fill="#ffab7a"/><path d="M 90 664 L 92 664 L 92 666 L 90 666 Z M 80 676 L 82 676 L 82 678 L 80 678 Z M 95 676 L 97 676 L 97 678 L 95 678 Z" fill="#ffb35c"/><path d="M 265 676 L 267 676 L 267 678 L 265 678 Z" fill="#ffb35c"/><path d="M 290 688 L 292 688 L 292 690 L 290 690 Z" fill="#ffb35c"/><path d="M 450 668 L 452 668 L 452 670 L 450 670 Z" fill="#ffb35c"/><path d="M 485 668 L 487 668 L 487 670 L 485 670 Z" fill="#ffb35c"/><path d="M 680 480 L 682 480 L 682 482 L 680 482 Z" fill="#ffb35c"/><path d="M 650 508 L 652 508 L 652 510 L 650 510 Z M 655 512 L 657 512 L 657 514 L 655 514 Z" fill="#ffb35c"/><path d="M 665 568 L 667 568 L 667 570 L 665 570 Z M 645 572 L 647 572 L 647 574 L 645 574 Z M 665 576 L 667 576 L 667 578 L 665 578 Z" fill="#ffb35c"/><path d="M 650 628 L 652 628 L 652 630 L 650 630 Z M 650 632 L 652 632 L 652 634 L 650 634 Z" fill="#ffb35c"/><path d="M 695 548 L 697 548 L 697 550 L 695 550 Z" fill="#ffb35c"/><path d="M 815 452 L 817 452 L 817 454 L 815 454 Z M 815 460 L 817 460 L 817 462 L 815 462 Z M 820 472 L 822 472 L 822 474 L 820 474 Z" fill="#ffb35c"/><path d="M 825 488 L 827 488 L 827 490 L 825 490 Z M 825 492 L 827 492 L 827 494 L 825 494 Z M 820 500 L 822 500 L 822 502 L 820 502 Z M 825 520 L 827 520 L 827 522 L 825 522 Z" fill="#ffb35c"/><path d="M 850 476 L 852 476 L 852 478 L 850 478 Z" fill="#ffb35c"/><path d="M 845 496 L 847 496 L 847 498 L 845 498 Z M 840 504 L 842 504 L 842 506 L 840 506 Z" fill="#ffb35c"/><path d="M 855 576 L 857 576 L 857 578 L 855 578 Z M 845 584 L 847 584 L 847 586 L 845 586 Z" fill="#ffb35c"/><path d="M 850 628 L 852 628 L 852 630 L 850 630 Z" fill="#ffb35c"/><path d="M 975 536 L 977 536 L 977 538 L 975 538 Z" fill="#ffb35c"/><path d="M 995 564 L 997 564 L 997 566 L 995 566 Z M 1000 600 L 1002 600 L 1002 602 L 1000 602 Z" fill="#ffb35c"/><path d="M 995 624 L 997 624 L 997 626 L 995 626 Z M 985 636 L 987 636 L 987 638 L 985 638 Z" fill="#ffb35c"/><path d="M 1035 656 L 1037 656 L 1037 658 L 1035 658 Z" fill="#ffb35c"/><path d="M 1165 640 L 1167 640 L 1167 642 L 1165 642 Z M 1135 664 L 1137 664 L 1137 666 L 1135 666 Z M 1140 668 L 1142 668 L 1142 670 L 1140 670 Z M 1155 684 L 1157 684 L 1157 686 L 1155 686 Z" fill="#ffb35c"/><path d="M 1145 692 L 1147 692 L 1147 694 L 1145 694 Z" fill="#ffb35c"/><path d="M 1200 648 L 1202 648 L 1202 650 L 1200 650 Z" fill="#ffb35c"/><path d="M 1195 696 L 1197 696 L 1197 698 L 1195 698 Z M 1205 700 L 1207 700 L 1207 702 L 1205 702 Z" fill="#ffb35c"/><path d="M 1310 644 L 1312 644 L 1312 646 L 1310 646 Z M 1290 648 L 1292 648 L 1292 650 L 1290 650 Z M 1260 660 L 1262 660 L 1262 662 L 1260 662 Z" fill="#ffb35c"/><path d="M 1345 656 L 1347 656 L 1347 658 L 1345 658 Z M 1340 660 L 1342 660 L 1342 662 L 1340 662 Z M 1350 660 L 1352 660 L 1352 662 L 1350 662 Z" fill="#ffb35c"/><path d="M 230 660 L 232 660 L 232 662 L 230 662 Z M 235 660 L 237 660 L 237 662 L 235 662 Z M 270 660 L 272 660 L 272 662 L 270 662 Z M 235 668 L 237 668 L 237 670 L 235 670 Z" fill="#ffc766"/><path d="M 300 672 L 302 672 L 302 674 L 300 674 Z M 290 680 L 292 680 L 292 682 L 290 682 Z" fill="#ffc766"/><path d="M 465 660 L 467 660 L 467 662 L 465 662 Z M 475 660 L 477 660 L 477 662 L 475 662 Z" fill="#ffc766"/><path d="M 660 456 L 662 456 L 662 458 L 660 458 Z M 640 472 L 642 472 L 642 474 L 640 474 Z" fill="#ffc766"/><path d="M 665 484 L 667 484 L 667 486 L 665 486 Z M 635 500 L 637 500 L 637 502 L 635 502 Z M 670 548 L 672 548 L 672 550 L 670 550 Z" fill="#ffc766"/><path d="M 655 600 L 657 600 L 657 602 L 655 602 Z" fill="#ffc766"/><path d="M 695 544 L 697 544 L 697 546 L 695 546 Z" fill="#ffc766"/><path d="M 825 436 L 827 436 L 827 438 L 825 438 Z" fill="#ffc766"/><path d="M 835 536 L 837 536 L 837 538 L 835 538 Z M 855 540 L 857 540 L 857 542 L 855 542 Z" fill="#ffc766"/><path d="M 850 556 L 852 556 L 852 558 L 850 558 Z M 845 596 L 847 596 L 847 598 L 845 598 Z" fill="#ffc766"/><path d="M 980 528 L 982 528 L 982 530 L 980 530 Z" fill="#ffc766"/><path d="M 985 580 L 987 580 L 987 582 L 985 582 Z M 1020 608 L 1022 608 L 1022 610 L 1020 610 Z M 990 620 L 992 620 L 992 622 L 990 622 Z" fill="#ffc766"/><path d="M 1000 624 L 1002 624 L 1002 626 L 1000 626 Z M 1000 636 L 1002 636 L 1002 638 L 1000 638 Z M 1030 648 L 1032 648 L 1032 650 L 1030 650 Z M 1010 656 L 1012 656 L 1012 658 L 1010 658 Z M 1005 664 L 1007 664 L 1007 666 L 1005 666 Z" fill="#ffc766"/><path d="M 1035 608 L 1037 608 L 1037 610 L 1035 610 Z M 1040 620 L 1042 620 L 1042 622 L 1040 622 Z" fill="#ffc766"/><path d="M 1170 684 L 1172 684 L 1172 686 L 1170 686 Z" fill="#ffc766"/><path d="M 1175 640 L 1177 640 L 1177 642 L 1175 642 Z M 1210 648 L 1212 648 L 1212 650 L 1210 650 Z M 1215 672 L 1217 672 L 1217 674 L 1215 674 Z M 1220 680 L 1222 680 L 1222 682 L 1220 682 Z M 1235 680 L 1237 680 L 1237 682 L 1235 682 Z" fill="#ffc766"/><path d="M 1185 704 L 1187 704 L 1187 706 L 1185 706 Z" fill="#ffc766"/><path d="M 1300 652 L 1302 652 L 1302 654 L 1300 654 Z M 1265 672 L 1267 672 L 1267 674 L 1265 674 Z M 1290 684 L 1292 684 L 1292 686 L 1290 686 Z" fill="#ffc766"/><path d="M 1350 656 L 1352 656 L 1352 658 L 1350 658 Z" fill="#ffc766"/><path d="M 1605 660 L 1607 660 L 1607 662 L 1605 662 Z" fill="#ffc766"/><path d="M 275 660 L 277 660 L 277 662 L 275 662 Z" fill="#ffd98a"/><path d="M 480 664 L 482 664 L 482 666 L 480 666 Z" fill="#ffd98a"/><path d="M 680 452 L 682 452 L 682 454 L 680 454 Z M 675 460 L 677 460 L 677 462 L 675 462 Z M 640 464 L 642 464 L 642 466 L 640 466 Z" fill="#ffd98a"/><path d="M 630 528 L 632 528 L 632 530 L 630 530 Z" fill="#ffd98a"/><path d="M 670 576 L 672 576 L 672 578 L 670 578 Z M 655 584 L 657 584 L 657 586 L 655 586 Z M 645 612 L 647 612 L 647 614 L 645 614 Z" fill="#ffd98a"/><path d="M 645 628 L 647 628 L 647 630 L 645 630 Z" fill="#ffd98a"/><path d="M 690 480 L 692 480 L 692 482 L 690 482 Z" fill="#ffd98a"/><path d="M 690 496 L 692 496 L 692 498 L 690 498 Z" fill="#ffd98a"/><path d="M 825 452 L 827 452 L 827 454 L 825 454 Z" fill="#ffd98a"/><path d="M 820 504 L 822 504 L 822 506 L 820 506 Z" fill="#ffd98a"/><path d="M 835 468 L 837 468 L 837 470 L 835 470 Z M 850 472 L 852 472 L 852 474 L 850 474 Z M 850 480 L 852 480 L 852 482 L 850 482 Z" fill="#ffd98a"/><path d="M 850 516 L 852 516 L 852 518 L 850 518 Z M 855 516 L 857 516 L 857 518 L 855 518 Z M 845 524 L 847 524 L 847 526 L 845 526 Z M 855 532 L 857 532 L 857 534 L 855 534 Z" fill="#ffd98a"/><path d="M 835 560 L 837 560 L 837 562 L 835 562 Z M 855 580 L 857 580 L 857 582 L 855 582 Z M 860 620 L 862 620 L 862 622 L 860 622 Z" fill="#ffd98a"/><path d="M 1005 536 L 1007 536 L 1007 538 L 1005 538 Z" fill="#ffd98a"/><path d="M 1000 556 L 1002 556 L 1002 558 L 1000 558 Z M 980 600 L 982 600 L 982 602 L 980 602 Z M 1005 608 L 1007 608 L 1007 610 L 1005 610 Z" fill="#ffd98a"/><path d="M 975 624 L 977 624 L 977 626 L 975 626 Z" fill="#ffd98a"/><path d="M 1140 676 L 1142 676 L 1142 678 L 1140 678 Z M 1165 684 L 1167 684 L 1167 686 L 1165 686 Z" fill="#ffd98a"/><path d="M 1150 700 L 1152 700 L 1152 702 L 1150 702 Z" fill="#ffd98a"/><path d="M 1235 656 L 1237 656 L 1237 658 L 1235 658 Z M 1220 668 L 1222 668 L 1222 670 L 1220 670 Z" fill="#ffd98a"/><path d="M 1220 704 L 1222 704 L 1222 706 L 1220 706 Z M 1230 704 L 1232 704 L 1232 706 L 1230 706 Z" fill="#ffd98a"/><path d="M 1255 648 L 1257 648 L 1257 650 L 1255 650 Z M 1285 648 L 1287 648 L 1287 650 L 1285 650 Z M 1305 656 L 1307 656 L 1307 658 L 1305 658 Z M 1255 668 L 1257 668 L 1257 670 L 1255 670 Z" fill="#ffd98a"/><path d="M 1285 708 L 1287 708 L 1287 710 L 1285 710 Z" fill="#ffd98a"/><path d="M 470 672 L 472 672 L 472 674 L 470 674 Z" fill="#ffe25c"/><path d="M 640 504 L 642 504 L 642 506 L 640 506 Z M 665 524 L 667 524 L 667 526 L 665 526 Z" fill="#ffe25c"/><path d="M 670 572 L 672 572 L 672 574 L 670 574 Z" fill="#ffe25c"/><path d="M 1030 548 L 1032 548 L 1032 550 L 1030 550 Z" fill="#ffe25c"/><path d="M 1015 560 L 1017 560 L 1017 562 L 1015 562 Z M 1005 620 L 1007 620 L 1007 622 L 1005 622 Z" fill="#ffe25c"/><path d="M 975 628 L 977 628 L 977 630 L 975 630 Z M 1005 668 L 1007 668 L 1007 670 L 1005 670 Z M 1005 676 L 1007 676 L 1007 678 L 1005 678 Z M 1030 680 L 1032 680 L 1032 682 L 1030 682 Z" fill="#ffe25c"/><path d="M 1000 692 L 1002 692 L 1002 694 L 1000 694 Z" fill="#ffe25c"/><path d="M 1290 632 L 1292 632 L 1292 634 L 1290 634 Z M 1290 660 L 1292 660 L 1292 662 L 1290 662 Z" fill="#ffe25c"/><path d="M 105 688 L 107 688 L 107 690 L 105 690 Z" fill="#ffe9a8"/><path d="M 290 676 L 292 676 L 292 678 L 290 678 Z" fill="#ffe9a8"/><path d="M 460 704 L 462 704 L 462 706 L 460 706 Z" fill="#ffe9a8"/><path d="M 675 472 L 677 472 L 677 474 L 675 474 Z" fill="#ffe9a8"/><path d="M 650 484 L 652 484 L 652 486 L 650 486 Z M 645 492 L 647 492 L 647 494 L 645 494 Z M 665 508 L 667 508 L 667 510 L 665 510 Z M 665 528 L 667 528 L 667 530 L 665 530 Z" fill="#ffe9a8"/><path d="M 640 552 L 642 552 L 642 554 L 640 554 Z M 670 580 L 672 580 L 672 582 L 670 582 Z" fill="#ffe9a8"/><path d="M 695 520 L 697 520 L 697 522 L 695 522 Z" fill="#ffe9a8"/><path d="M 815 464 L 817 464 L 817 466 L 815 466 Z M 820 480 L 822 480 L 822 482 L 820 482 Z" fill="#ffe9a8"/><path d="M 840 424 L 842 424 L 842 426 L 840 426 Z M 840 460 L 842 460 L 842 462 L 840 462 Z M 835 476 L 837 476 L 837 478 L 835 478 Z M 840 480 L 842 480 L 842 482 L 840 482 Z" fill="#ffe9a8"/><path d="M 855 584 L 857 584 L 857 586 L 855 586 Z" fill="#ffe9a8"/><path d="M 850 624 L 852 624 L 852 626 L 850 626 Z" fill="#ffe9a8"/><path d="M 985 544 L 987 544 L 987 546 L 985 546 Z" fill="#ffe9a8"/><path d="M 1015 588 L 1017 588 L 1017 590 L 1015 590 Z" fill="#ffe9a8"/><path d="M 990 628 L 992 628 L 992 630 L 990 630 Z M 1020 636 L 1022 636 L 1022 638 L 1020 638 Z M 1000 668 L 1002 668 L 1002 670 L 1000 670 Z M 1025 668 L 1027 668 L 1027 670 L 1025 670 Z M 1025 680 L 1027 680 L 1027 682 L 1025 682 Z M 1010 684 L 1012 684 L 1012 686 L 1010 686 Z M 1005 688 L 1007 688 L 1007 690 L 1005 690 Z" fill="#ffe9a8"/><path d="M 1035 644 L 1037 644 L 1037 646 L 1035 646 Z M 1035 664 L 1037 664 L 1037 666 L 1035 666 Z" fill="#ffe9a8"/><path d="M 1040 696 L 1042 696 L 1042 698 L 1040 698 Z" fill="#ffe9a8"/><path d="M 1125 692 L 1127 692 L 1127 694 L 1125 694 Z M 1170 696 L 1172 696 L 1172 698 L 1170 698 Z" fill="#ffe9a8"/><path d="M 1195 644 L 1197 644 L 1197 646 L 1195 646 Z M 1190 656 L 1192 656 L 1192 658 L 1190 658 Z M 1195 664 L 1197 664 L 1197 666 L 1195 666 Z M 1175 668 L 1177 668 L 1177 670 L 1175 670 Z M 1205 668 L 1207 668 L 1207 670 L 1205 670 Z" fill="#ffe9a8"/><path d="M 1195 704 L 1197 704 L 1197 706 L 1195 706 Z" fill="#ffe9a8"/><path d="M 1310 672 L 1312 672 L 1312 674 L 1310 674 Z" fill="#ffe9a8"/><path d="M 280 668 L 282 668 L 282 670 L 280 670 Z" fill="#fff2c8"/><path d="M 465 680 L 467 680 L 467 682 L 465 682 Z" fill="#fff2c8"/><path d="M 490 652 L 492 652 L 492 654 L 490 654 Z M 490 664 L 492 664 L 492 666 L 490 666 Z" fill="#fff2c8"/><path d="M 670 496 L 672 496 L 672 498 L 670 498 Z M 655 508 L 657 508 L 657 510 L 655 510 Z M 670 540 L 672 540 L 672 542 L 670 542 Z M 655 544 L 657 544 L 657 546 L 655 546 Z M 650 548 L 652 548 L 652 550 L 650 550 Z" fill="#fff2c8"/><path d="M 660 572 L 662 572 L 662 574 L 660 574 Z" fill="#fff2c8"/><path d="M 820 448 L 822 448 L 822 450 L 820 450 Z" fill="#fff2c8"/><path d="M 810 488 L 812 488 L 812 490 L 810 490 Z M 825 504 L 827 504 L 827 506 L 825 506 Z M 805 508 L 807 508 L 807 510 L 805 510 Z" fill="#fff2c8"/><path d="M 830 432 L 832 432 L 832 434 L 830 434 Z M 840 432 L 842 432 L 842 434 L 840 434 Z" fill="#fff2c8"/><path d="M 855 524 L 857 524 L 857 526 L 855 526 Z" fill="#fff2c8"/><path d="M 840 564 L 842 564 L 842 566 L 840 566 Z M 860 600 L 862 600 L 862 602 L 860 602 Z M 845 604 L 847 604 L 847 606 L 845 606 Z M 855 612 L 857 612 L 857 614 L 855 614 Z" fill="#fff2c8"/><path d="M 850 644 L 852 644 L 852 646 L 850 646 Z" fill="#fff2c8"/><path d="M 985 532 L 987 532 L 987 534 L 985 534 Z M 980 536 L 982 536 L 982 538 L 980 538 Z M 1000 548 L 1002 548 L 1002 550 L 1000 550 Z" fill="#fff2c8"/><path d="M 990 556 L 992 556 L 992 558 L 990 558 Z M 1015 568 L 1017 568 L 1017 570 L 1015 570 Z M 990 600 L 992 600 L 992 602 L 990 602 Z M 1025 604 L 1027 604 L 1027 606 L 1025 606 Z" fill="#fff2c8"/><path d="M 975 636 L 977 636 L 977 638 L 975 638 Z" fill="#fff2c8"/><path d="M 1015 692 L 1017 692 L 1017 694 L 1015 694 Z" fill="#fff2c8"/><path d="M 1035 676 L 1037 676 L 1037 678 L 1035 678 Z" fill="#fff2c8"/><path d="M 1155 652 L 1157 652 L 1157 654 L 1155 654 Z M 1170 660 L 1172 660 L 1172 662 L 1170 662 Z M 1160 676 L 1162 676 L 1162 678 L 1160 678 Z M 1150 680 L 1152 680 L 1152 682 L 1150 682 Z" fill="#fff2c8"/><path d="M 1125 696 L 1127 696 L 1127 698 L 1125 698 Z" fill="#fff2c8"/><path d="M 1195 652 L 1197 652 L 1197 654 L 1195 654 Z M 1180 672 L 1182 672 L 1182 674 L 1180 674 Z M 1205 676 L 1207 676 L 1207 678 L 1205 678 Z M 1225 676 L 1227 676 L 1227 678 L 1225 678 Z" fill="#fff2c8"/><path d="M 1295 652 L 1297 652 L 1297 654 L 1295 654 Z M 1265 664 L 1267 664 L 1267 666 L 1265 666 Z M 1300 676 L 1302 676 L 1302 678 L 1300 678 Z" fill="#fff2c8"/><path d="M 1285 724 L 1287 724 L 1287 726 L 1285 726 Z M 1290 724 L 1292 724 L 1292 726 L 1290 726 Z" fill="#fff2c8"/><path d="M 1315 660 L 1317 660 L 1317 662 L 1315 662 Z" fill="#fff2c8"/></svg>
