<svg xmlns="http://www.w3.org/2000/svg" viewBox="0 0 1672 941"><path d="M 532 528 L 535 528 L 535 533 L 532 533 Z" fill="#9ad8ff"/><path d="M 560 528 L 563 528 L 563 533 L 560 533 Z M 574 528 L 577 528 L 577 533 L 574 533 Z M 581 528 L 584 528 L 584 533 L 581 533 Z M 588 528 L 591 528 L 591 533 L 588 533 Z" fill="#9ad8ff"/><path d="M 581 704 L 584 704 L 584 709 L 581 709 Z" fill="#9ad8ff"/><path d="M 539 583 L 542 583 L 542 588 L 539 588 Z" fill="#a8f0c8"/><path d="M 539 638 L 542 638 L 542 643 L 539 643 Z" fill="#a8f0c8"/><path d="M 581 583 L 584 583 L 584 588 L 581 588 Z" fill="#a8f0c8"/><path d="M 560 627 L 563 627 L 563 632 L 560 632 Z M 574 627 L 577 627 L 577 632 L 574 632 Z M 595 627 L 598 627 L 598 632 L 595 632 Z M 553 638 L 556 638 L 556 643 L 553 643 Z" fill="#a8f0c8"/><path d="M 546 550 L 549 550 L 549 555 L 546 555 Z" fill="#c9a8ff"/><path d="M 539 605 L 542 605 L 542 610 L 539 610 Z" fill="#c9a8ff"/><path d="M 574 550 L 577 550 L 577 555 L 574 555 Z" fill="#c9a8ff"/><path d="M 560 594 L 563 594 L 563 599 L 560 599 Z M 581 594 L 584 594 L 584 599 L 581 599 Z M 588 594 L 591 594 L 591 599 L 588 599 Z M 595 594 L 598 594 L 598 599 L 595 599 Z M 574 605 L 577 605 L 577 610 L 574 610 Z M 588 605 L 591 605 L 591 610 L 588 610 Z M 595 605 L 598 605 L 598 610 L 595 610 Z" fill="#c9a8ff"/><path d="M 581 715 L 584 715 L 584 720 L 581 720 Z" fill="#c9a8ff"/><path d="M 567 561 L 570 561 L 570 566 L 567 566 Z M 602 561 L 605 561 L 605 566 L 602 566 Z M 574 572 L 577 572 L 577 577 L 574 577 Z" fill="#ffb3d9"/><path d="M 588 726 L 591 726 L 591 731 L 588 731 Z M 588 737 L 591 737 L 591 742 L 588 742 Z" fill="#ffb3d9"/><path d="M 574 616 L 577 616 L 577 621 L 574 621 Z" fill="#ffe066"/><path d="M 595 660 L 598 660 L 598 665 L 595 665 Z M 595 671 L 598 671 L 598 676 L 595 676 Z" fill="#ffe066"/></svg>
