<svg xmlns="http://www.w3.org/2000/svg" viewBox="0 0 1672 941"><path d="M 532 539 L 535 539 L 535 544 L 532 544 Z M 539 550 L 542 550 L 542 555 L 539 555 Z" fill="#ff2e63"/><path d="M 546 605 L 549 605 L 549 610 L 546 610 Z" fill="#ff2e63"/><path d="M 581 572 L 584 572 L 584 577 L 581 577 Z M 567 583 L 570 583 L 570 588 L 567 588 Z M 595 583 L 598 583 L 598 588 L 595 588 Z M 560 594 L 563 594 L 563 599 L 560 599 Z" fill="#ff2e63"/><path d="M 602 627 L 605 627 L 605 632 L 602 632 Z M 567 638 L 570 638 L 570 643 L 567 643 Z" fill="#ff2e63"/><path d="M 588 737 L 591 737 L 591 742 L 588 742 Z" fill="#ff2e63"/><path d="M 539 605 L 542 605 L 542 610 L 539 610 Z" fill="#ff5c8a"/><path d="M 539 627 L 542 627 L 542 632 L 539 632 Z" fill="#ff5c8a"/><path d="M 581 539 L 584 539 L 584 544 L 581 544 Z" fill="#ff5c8a"/><path d="M 581 605 L 584 605 L 584 610 L 581 610 Z M 595 605 L 598 605 L 598 610 L 595 610 Z" fill="#ff5c8a"/><path d="M 574 649 L 577 649 L 577 654 L 574 654 Z M 602 649 L 605 649 L 605 654 L 602 654 Z M 581 671 L 584 671 L 584 676 L 581 676 Z" fill="#ff5c8a"/><path d="M 595 693 L 598 693 L 598 698 L 595 698 Z M 588 715 L 591 715 L 591 720 L 588 720 Z M 595 726 L 598 726 L 598 731 L 595 731 Z M 581 737 L 584 737 L 584 742 L 581 742 Z" fill="#ff5c8a"/><path d="M 602 693 L 605 693 L 605 698 L 602 698 Z" fill="#ff9fbf"/></svg>
