<svg xmlns="http://www.w3.org/2000/svg" viewBox="0 0 1672 941"><path d="M 30 715 L 34 715 L 34 720 L 30 720 Z" fill="#4dc3ff"/><path d="M 90 704 L 94 704 L 94 709 L 90 709 Z M 120 704 L 124 704 L 124 709 L 120 709 Z" fill="#4dc3ff"/><path d="M 140 693 L 144 693 L 144 698 L 140 698 Z M 190 726 L 194 726 L 194 731 L 190 731 Z" fill="#4dc3ff"/><path d="M 420 660 L 424 660 L 424 665 L 420 665 Z" fill="#4dc3ff"/><path d="M 420 693 L 424 693 L 424 698 L 420 698 Z" fill="#4dc3ff"/><path d="M 520 682 L 524 682 L 524 687 L 520 687 Z" fill="#4dc3ff"/><path d="M 610 781 L 614 781 L 614 786 L 610 786 Z" fill="#4dc3ff"/><path d="M 630 649 L 634 649 L 634 654 L 630 654 Z M 630 682 L 634 682 L 634 687 L 630 687 Z" fill="#4dc3ff"/><path d="M 640 715 L 644 715 L 644 720 L 640 720 Z" fill="#4dc3ff"/><path d="M 740 638 L 744 638 L 744 643 L 740 643 Z" fill="#4dc3ff"/><path d="M 800 616 L 804 616 L 804 621 L 800 621 Z" fill="#4dc3ff"/><path d="M 800 627 L 804 627 L 804 632 L 800 632 Z M 820 638 L 824 638 L 824 643 L 820 643 Z M 780 660 L 784 660 L 784 665 L 780 665 Z" fill="#4dc3ff"/><path d="M 820 693 L 824 693 L 824 698 L 820 698 Z M 800 726 L 804 726 L 804 731 L 800 731 Z M 780 748 L 784 748 L 784 753 L 780 753 Z M 800 748 L 804 748 L 804 753 L 800 753 Z" fill="#4dc3ff"/><path d="M 840 682 L 844 682 L 844 687 L 840 687 Z" fill="#4dc3ff"/><path d="M 830 704 L 834 704 L 834 709 L 830 709 Z M 830 715 L 834 715 L 834 720 L 830 720 Z M 860 726 L 864 726 L 864 731 L 860 731 Z" fill="#4dc3ff"/><path d="M 870 770 L 874 770 L 874 775 L 870 775 Z" fill="#4dc3ff"/><path d="M 940 517 L 944 517 L 944 522 L 940 522 Z M 920 539 L 924 539 L 924 544 L 920 544 Z" fill="#4dc3ff"/><path d="M 920 561 L 924 561 L 924 566 L 920 566 Z M 930 616 L 934 616 L 934 621 L 930 621 Z" fill="#4dc3ff"/><path d="M 910 627 L 914 627 L 914 632 L 910 632 Z M 920 660 L 924 660 L 924 665 L 920 665 Z" fill="#4dc3ff"/><path d="M 940 693 L 944 693 L 944 698 L 940 698 Z M 940 737 L 944 737 L 944 742 L 940 742 Z" fill="#4dc3ff"/><path d="M 1030 715 L 1034 715 L 1034 720 L 1030 720 Z" fill="#4dc3ff"/><path d="M 1130 770 L 1134 770 L 1134 775 L 1130 775 Z" fill="#4dc3ff"/><path d="M 1350 759 L 1354 759 L 1354 764 L 1350 764 Z" fill="#4dc3ff"/><path d="M 1400 605 L 1404 605 L 1404 610 L 1400 610 Z M 1390 616 L 1394 616 L 1394 621 L 1390 621 Z" fill="#4dc3ff"/><path d="M 1420 638 L 1424 638 L 1424 643 L 1420 643 Z M 1440 649 L 1444 649 L 1444 654 L 1440 654 Z M 1390 660 L 1394 660 L 1394 665 L 1390 665 Z M 1400 660 L 1404 660 L 1404 665 L 1400 665 Z" fill="#4dc3ff"/><path d="M 1380 737 L 1384 737 L 1384 742 L 1380 742 Z M 1420 737 L 1424 737 L 1424 742 L 1420 742 Z M 1430 737 L 1434 737 L 1434 742 L 1430 742 Z" fill="#4dc3ff"/><path d="M 1470 704 L 1474 704 L 1474 709 L 1470 709 Z" fill="#4dc3ff"/><path d="M 1570 671 L 1574 671 L 1574 676 L 1570 676 Z" fill="#4dc3ff"/><path d="M 1550 693 L 1554 693 L 1554 698 L 1550 698 Z M 1530 748 L 1534 748 L 1534 753 L 1530 753 Z M 1540 748 L 1544 748 L 1544 753 L 1540 753 Z" fill="#4dc3ff"/><path d="M 1650 693 L 1654 693 L 1654 698 L 1650 698 Z" fill="#4dc3ff"/><path d="M 170 660 L 174 660 L 174 665 L 170 665 Z" fill="#b25cff"/><path d="M 330 726 L 334 726 L 334 731 L 330 731 Z" fill="#b25cff"/><path d="M 370 627 L 374 627 L 374 632 L 370 632 Z M 400 627 L 404 627 L 404 632 L 400 632 Z M 400 638 L 404 638 L 404 643 L 400 643 Z M 410 660 L 414 660 L 414 665 L 410 665 Z M 400 671 L 404 671 L 404 676 L 400 676 Z M 360 682 L 364 682 L 364 687 L 360 687 Z" fill="#b25cff"/><path d="M 530 671 L 534 671 L 534 676 L 530 676 Z" fill="#b25cff"/><path d="M 510 693 L 514 693 L 514 698 L 510 698 Z" fill="#b25cff"/><path d="M 620 594 L 624 594 L 624 599 L 620 599 Z" fill="#b25cff"/><path d="M 600 770 L 604 770 L 604 775 L 600 775 Z M 590 781 L 594 781 L 594 786 L 590 786 Z" fill="#b25cff"/><path d="M 710 583 L 714 583 L 714 588 L 710 588 Z M 690 605 L 694 605 L 694 610 L 690 610 Z" fill="#b25cff"/><path d="M 720 627 L 724 627 L 724 632 L 720 632 Z" fill="#b25cff"/><path d="M 800 561 L 804 561 L 804 566 L 800 566 Z M 800 572 L 804 572 L 804 577 L 800 577 Z" fill="#b25cff"/><path d="M 880 715 L 884 715 L 884 720 L 880 720 Z" fill="#b25cff"/><path d="M 930 484 L 934 484 L 934 489 L 930 489 Z" fill="#b25cff"/><path d="M 950 583 L 954 583 L 954 588 L 950 588 Z" fill="#b25cff"/><path d="M 960 649 L 964 649 L 964 654 L 960 654 Z M 960 671 L 964 671 L 964 676 L 960 676 Z" fill="#b25cff"/><path d="M 970 715 L 974 715 L 974 720 L 970 720 Z M 970 737 L 974 737 L 974 742 L 970 742 Z" fill="#b25cff"/><path d="M 1010 759 L 1014 759 L 1014 764 L 1010 764 Z" fill="#b25cff"/><path d="M 1260 715 L 1264 715 L 1264 720 L 1260 720 Z M 1300 737 L 1304 737 L 1304 742 L 1300 742 Z" fill="#b25cff"/><path d="M 1330 759 L 1334 759 L 1334 764 L 1330 764 Z M 1360 759 L 1364 759 L 1364 764 L 1360 764 Z" fill="#b25cff"/><path d="M 1390 572 L 1394 572 L 1394 577 L 1390 577 Z" fill="#b25cff"/><path d="M 1390 682 L 1394 682 L 1394 687 L 1390 687 Z M 1400 682 L 1404 682 L 1404 687 L 1400 687 Z" fill="#b25cff"/><path d="M 1490 693 L 1494 693 L 1494 698 L 1490 698 Z" fill="#b25cff"/><path d="M 1450 759 L 1454 759 L 1454 764 L 1450 764 Z" fill="#b25cff"/><path d="M 1590 682 L 1594 682 L 1594 687 L 1590 687 Z" fill="#b25cff"/><path d="M 1640 693 L 1644 693 L 1644 698 L 1640 698 Z" fill="#b25cff"/><path d="M 1590 770 L 1594 770 L 1594 775 L 1590 775 Z" fill="#b25cff"/><path d="M 40 737 L 44 737 L 44 742 L 40 742 Z" fill="#b6ff3b"/><path d="M 110 726 L 114 726 L 114 731 L 110 731 Z" fill="#b6ff3b"/><path d="M 170 671 L 174 671 L 174 676 L 170 676 Z" fill="#b6ff3b"/><path d="M 410 594 L 414 594 L 414 599 L 410 599 Z" fill="#b6ff3b"/><path d="M 420 715 L 424 715 L 424 720 L 420 720 Z M 480 715 L 484 715 L 484 720 L 480 720 Z" fill="#b6ff3b"/><path d="M 500 671 L 504 671 L 504 676 L 500 676 Z" fill="#b6ff3b"/><path d="M 520 726 L 524 726 L 524 731 L 520 731 Z" fill="#b6ff3b"/><path d="M 660 693 L 664 693 L 664 698 L 660 698 Z M 680 715 L 684 715 L 684 720 L 680 720 Z" fill="#b6ff3b"/><path d="M 710 561 L 714 561 L 714 566 L 710 566 Z" fill="#b6ff3b"/><path d="M 710 671 L 714 671 L 714 676 L 710 676 Z" fill="#b6ff3b"/><path d="M 780 550 L 784 550 L 784 555 L 780 555 Z" fill="#b6ff3b"/><path d="M 820 594 L 824 594 L 824 599 L 820 599 Z" fill="#b6ff3b"/><path d="M 790 627 L 794 627 L 794 632 L 790 632 Z" fill="#b6ff3b"/><path d="M 790 759 L 794 759 L 794 764 L 790 764 Z" fill="#b6ff3b"/><path d="M 870 737 L 874 737 L 874 742 L 870 742 Z M 890 737 L 894 737 L 894 742 L 890 742 Z" fill="#b6ff3b"/><path d="M 920 528 L 924 528 L 924 533 L 920 533 Z" fill="#b6ff3b"/><path d="M 910 594 L 914 594 L 914 599 L 910 599 Z M 920 616 L 924 616 L 924 621 L 920 621 Z" fill="#b6ff3b"/><path d="M 930 693 L 934 693 L 934 698 L 930 698 Z M 960 693 L 964 693 L 964 698 L 960 698 Z" fill="#b6ff3b"/><path d="M 1070 682 L 1074 682 L 1074 687 L 1070 687 Z" fill="#b6ff3b"/><path d="M 1100 748 L 1104 748 L 1104 753 L 1100 753 Z" fill="#b6ff3b"/><path d="M 1120 759 L 1124 759 L 1124 764 L 1120 764 Z" fill="#b6ff3b"/><path d="M 1240 759 L 1244 759 L 1244 764 L 1240 764 Z" fill="#b6ff3b"/><path d="M 1310 737 L 1314 737 L 1314 742 L 1310 742 Z" fill="#b6ff3b"/><path d="M 1450 572 L 1454 572 L 1454 577 L 1450 577 Z" fill="#b6ff3b"/><path d="M 1460 649 L 1464 649 L 1464 654 L 1460 654 Z" fill="#b6ff3b"/><path d="M 1500 715 L 1504 715 L 1504 720 L 1500 720 Z M 1490 726 L 1494 726 L 1494 731 L 1490 731 Z" fill="#b6ff3b"/><path d="M 1580 693 L 1584 693 L 1584 698 L 1580 698 Z M 1560 704 L 1564 704 L 1564 709 L 1560 709 Z M 1570 737 L 1574 737 L 1574 742 L 1570 742 Z" fill="#b6ff3b"/><path d="M 30 649 L 34 649 L 34 654 L 30 654 Z M 40 671 L 44 671 L 44 676 L 40 676 Z" fill="#ff5cc8"/><path d="M 50 737 L 54 737 L 54 742 L 50 742 Z" fill="#ff5cc8"/><path d="M 190 627 L 194 627 L 194 632 L 190 632 Z" fill="#ff5cc8"/><path d="M 170 737 L 174 737 L 174 742 L 170 742 Z" fill="#ff5cc8"/><path d="M 240 737 L 244 737 L 244 742 L 240 742 Z" fill="#ff5cc8"/><path d="M 380 627 L 384 627 L 384 632 L 380 632 Z M 380 682 L 384 682 L 384 687 L 380 687 Z" fill="#ff5cc8"/><path d="M 450 737 L 454 737 L 454 742 L 450 742 Z M 480 737 L 484 737 L 484 742 L 480 742 Z" fill="#ff5cc8"/><path d="M 420 759 L 424 759 L 424 764 L 420 764 Z" fill="#ff5cc8"/><path d="M 510 682 L 514 682 L 514 687 L 510 687 Z" fill="#ff5cc8"/><path d="M 490 715 L 494 715 L 494 720 L 490 720 Z" fill="#ff5cc8"/><path d="M 620 583 L 624 583 L 624 588 L 620 588 Z" fill="#ff5cc8"/><path d="M 620 671 L 624 671 L 624 676 L 620 676 Z" fill="#ff5cc8"/><path d="M 580 792 L 584 792 L 584 797 L 580 797 Z" fill="#ff5cc8"/><path d="M 670 616 L 674 616 L 674 621 L 670 621 Z" fill="#ff5cc8"/><path d="M 660 715 L 664 715 L 664 720 L 660 720 Z" fill="#ff5cc8"/><path d="M 720 528 L 724 528 L 724 533 L 720 533 Z" fill="#ff5cc8"/><path d="M 720 583 L 724 583 L 724 588 L 720 588 Z M 720 605 L 724 605 L 724 610 L 720 610 Z M 740 605 L 744 605 L 744 610 L 740 610 Z" fill="#ff5cc8"/><path d="M 740 726 L 744 726 L 744 731 L 740 731 Z" fill="#ff5cc8"/><path d="M 800 671 L 804 671 L 804 676 L 800 676 Z" fill="#ff5cc8"/><path d="M 770 715 L 774 715 L 774 720 L 770 720 Z M 810 715 L 814 715 L 814 720 L 810 720 Z" fill="#ff5cc8"/><path d="M 760 759 L 764 759 L 764 764 L 760 764 Z M 800 759 L 804 759 L 804 764 L 800 764 Z" fill="#ff5cc8"/><path d="M 880 539 L 884 539 L 884 544 L 880 544 Z" fill="#ff5cc8"/><path d="M 860 671 L 864 671 L 864 676 L 860 676 Z" fill="#ff5cc8"/><path d="M 870 726 L 874 726 L 874 731 L 870 731 Z" fill="#ff5cc8"/><path d="M 920 550 L 924 550 L 924 555 L 920 555 Z" fill="#ff5cc8"/><path d="M 950 572 L 954 572 L 954 577 L 950 577 Z M 940 605 L 944 605 L 944 610 L 940 610 Z" fill="#ff5cc8"/><path d="M 960 638 L 964 638 L 964 643 L 960 643 Z" fill="#ff5cc8"/><path d="M 920 748 L 924 748 L 924 753 L 920 753 Z" fill="#ff5cc8"/><path d="M 1030 726 L 1034 726 L 1034 731 L 1030 731 Z" fill="#ff5cc8"/><path d="M 1090 682 L 1094 682 L 1094 687 L 1090 687 Z" fill="#ff5cc8"/><path d="M 1090 693 L 1094 693 L 1094 698 L 1090 698 Z M 1040 748 L 1044 748 L 1044 753 L 1040 753 Z" fill="#ff5cc8"/><path d="M 1120 770 L 1124 770 L 1124 775 L 1120 775 Z" fill="#ff5cc8"/><path d="M 1220 759 L 1224 759 L 1224 764 L 1220 764 Z" fill="#ff5cc8"/><path d="M 1270 704 L 1274 704 L 1274 709 L 1270 709 Z" fill="#ff5cc8"/><path d="M 1320 693 L 1324 693 L 1324 698 L 1320 698 Z M 1320 704 L 1324 704 L 1324 709 L 1320 709 Z" fill="#ff5cc8"/><path d="M 1400 572 L 1404 572 L 1404 577 L 1400 577 Z" fill="#ff5cc8"/><path d="M 1400 649 L 1404 649 L 1404 654 L 1400 654 Z" fill="#ff5cc8"/><path d="M 1410 770 L 1414 770 L 1414 775 L 1410 775 Z" fill="#ff5cc8"/><path d="M 1470 693 L 1474 693 L 1474 698 L 1470 698 Z M 1510 737 L 1514 737 L 1514 742 L 1510 742 Z" fill="#ff5cc8"/><path d="M 1560 671 L 1564 671 L 1564 676 L 1560 676 Z" fill="#ff5cc8"/><path d="M 1640 638 L 1644 638 L 1644 643 L 1640 643 Z M 1630 660 L 1634 660 L 1634 665 L 1630 665 Z" fill="#ff5cc8"/><path d="M 1590 715 L 1594 715 L 1594 720 L 1590 720 Z M 1630 726 L 1634 726 L 1634 731 L 1630 731 Z" fill="#ff5cc8"/><path d="M 60 693 L 64 693 L 64 698 L 60 698 Z" fill="#ffffff"/><path d="M 90 715 L 94 715 L 94 720 L 90 720 Z" fill="#ffffff"/><path d="M 160 605 L 164 605 L 164 610 L 160 610 Z" fill="#ffffff"/><path d="M 190 638 L 194 638 L 194 643 L 190 643 Z M 190 660 L 194 660 L 194 665 L 190 665 Z" fill="#ffffff"/><path d="M 190 693 L 194 693 L 194 698 L 190 698 Z M 140 726 L 144 726 L 144 731 L 140 731 Z" fill="#ffffff"/><path d="M 220 748 L 224 748 L 224 753 L 220 753 Z" fill="#ffffff"/><path d="M 330 638 L 334 638 L 334 643 L 330 643 Z M 340 660 L 344 660 L 344 665 L 340 665 Z" fill="#ffffff"/><path d="M 320 704 L 324 704 L 324 709 L 320 709 Z" fill="#ffffff"/><path d="M 410 649 L 414 649 L 414 654 L 410 654 Z" fill="#ffffff"/><path d="M 390 748 L 394 748 L 394 753 L 390 753 Z" fill="#ffffff"/><path d="M 450 748 L 454 748 L 454 753 L 450 753 Z" fill="#ffffff"/><path d="M 540 660 L 544 660 L 544 665 L 540 665 Z M 550 682 L 554 682 L 554 687 L 550 687 Z" fill="#ffffff"/><path d="M 540 704 L 544 704 L 544 709 L 540 709 Z" fill="#ffffff"/><path d="M 620 616 L 624 616 L 624 621 L 620 621 Z" fill="#ffffff"/><path d="M 580 770 L 584 770 L 584 775 L 580 775 Z" fill="#ffffff"/><path d="M 630 605 L 634 605 L 634 610 L 630 610 Z" fill="#ffffff"/><path d="M 660 726 L 664 726 L 664 731 L 660 731 Z" fill="#ffffff"/><path d="M 750 605 L 754 605 L 754 610 L 750 610 Z" fill="#ffffff"/><path d="M 730 627 L 734 627 L 734 632 L 730 632 Z M 690 649 L 694 649 L 694 654 L 690 654 Z" fill="#ffffff"/><path d="M 700 715 L 704 715 L 704 720 L 700 720 Z M 750 715 L 754 715 L 754 720 L 750 720 Z M 730 726 L 734 726 L 734 731 L 730 731 Z" fill="#ffffff"/><path d="M 790 594 L 794 594 L 794 599 L 790 599 Z" fill="#ffffff"/><path d="M 800 638 L 804 638 L 804 643 L 800 643 Z" fill="#ffffff"/><path d="M 780 693 L 784 693 L 784 698 L 780 698 Z M 810 704 L 814 704 L 814 709 L 810 709 Z" fill="#ffffff"/><path d="M 880 594 L 884 594 L 884 599 L 880 599 Z" fill="#ffffff"/><path d="M 830 660 L 834 660 L 834 665 L 830 665 Z M 840 660 L 844 660 L 844 665 L 840 665 Z M 880 671 L 884 671 L 884 676 L 880 676 Z" fill="#ffffff"/><path d="M 920 484 L 924 484 L 924 489 L 920 489 Z" fill="#ffffff"/><path d="M 900 693 L 904 693 L 904 698 L 900 698 Z M 910 715 L 914 715 L 914 720 L 910 720 Z" fill="#ffffff"/><path d="M 920 770 L 924 770 L 924 775 L 920 775 Z" fill="#ffffff"/><path d="M 1020 748 L 1024 748 L 1024 753 L 1020 753 Z" fill="#ffffff"/><path d="M 1020 759 L 1024 759 L 1024 764 L 1020 764 Z" fill="#ffffff"/><path d="M 1060 693 L 1064 693 L 1064 698 L 1060 698 Z M 1060 704 L 1064 704 L 1064 709 L 1060 709 Z M 1070 715 L 1074 715 L 1074 720 L 1070 720 Z M 1080 726 L 1084 726 L 1084 731 L 1080 731 Z" fill="#ffffff"/><path d="M 1240 693 L 1244 693 L 1244 698 L 1240 698 Z M 1240 715 L 1244 715 L 1244 720 L 1240 720 Z" fill="#ffffff"/><path d="M 1310 748 L 1314 748 L 1314 753 L 1310 753 Z" fill="#ffffff"/><path d="M 1350 693 L 1354 693 L 1354 698 L 1350 698 Z" fill="#ffffff"/><path d="M 1410 583 L 1414 583 L 1414 588 L 1410 588 Z M 1440 583 L 1444 583 L 1444 588 L 1440 588 Z" fill="#ffffff"/><path d="M 1380 638 L 1384 638 L 1384 643 L 1380 643 Z M 1420 660 L 1424 660 L 1424 665 L 1420 665 Z M 1390 671 L 1394 671 L 1394 676 L 1390 676 Z" fill="#ffffff"/><path d="M 1380 726 L 1384 726 L 1384 731 L 1380 731 Z" fill="#ffffff"/><path d="M 1460 660 L 1464 660 L 1464 665 L 1460 665 Z" fill="#ffffff"/><path d="M 1530 638 L 1534 638 L 1534 643 L 1530 643 Z" fill="#ffffff"/><path d="M 1650 715 L 1654 715 L 1654 720 L 1650 720 Z" fill="#ffffff"/><path d="M 1660 770 L 1664 770 L 1664 775 L 1660 775 Z" fill="#ffffff"/></svg>
