<svg xmlns="http://www.w3.org/2000/svg" viewBox="0 0 1672 941"><path d="M 455 795 L 460 795 L 460 802 L 455 802 Z" fill="#a8f0c8"/><path d="M 533 795 L 538 795 L 538 802 L 533 802 Z" fill="#a8f0c8"/><path d="M 559 795 L 564 795 L 564 802 L 559 802 Z M 611 795 L 616 795 L 616 802 L 611 802 Z" fill="#a8f0c8"/><path d="M 663 795 L 668 795 L 668 802 L 663 802 Z" fill="#a8f0c8"/><path d="M 767 795 L 772 795 L 772 802 L 767 802 Z M 793 795 L 798 795 L 798 802 L 793 802 Z M 819 795 L 824 795 L 824 802 L 819 802 Z" fill="#a8f0c8"/><path d="M 871 795 L 876 795 L 876 802 L 871 802 Z" fill="#a8f0c8"/><path d="M 1079 795 L 1084 795 L 1084 802 L 1079 802 Z" fill="#a8f0c8"/><path d="M 1105 795 L 1110 795 L 1110 802 L 1105 802 Z" fill="#a8f0c8"/><path d="M 1209 795 L 1214 795 L 1214 802 L 1209 802 Z" fill="#a8f0c8"/><path d="M 1417 795 L 1422 795 L 1422 802 L 1417 802 Z" fill="#a8f0c8"/><path d="M 1599 795 L 1604 795 L 1604 802 L 1599 802 Z M 1651 795 L 1656 795 L 1656 802 L 1651 802 Z" fill="#a8f0c8"/><path d="M 13 810 L 18 810 L 18 817 L 13 817 Z M 26 810 L 31 810 L 31 817 L 26 817 Z" fill="#c9a8ff"/><path d="M 130 750 L 135 750 L 135 757 L 130 757 Z" fill="#c9a8ff"/><path d="M 130 810 L 135 810 L 135 817 L 130 817 Z" fill="#c9a8ff"/><path d="M 156 810 L 161 810 L 161 817 L 156 817 Z" fill="#c9a8ff"/><path d="M 247 810 L 252 810 L 252 817 L 247 817 Z" fill="#c9a8ff"/><path d="M 286 810 L 291 810 L 291 817 L 286 817 Z M 325 810 L 330 810 L 330 817 L 325 817 Z" fill="#c9a8ff"/><path d="M 546 810 L 551 810 L 551 817 L 546 817 Z" fill="#c9a8ff"/><path d="M 611 810 L 616 810 L 616 817 L 611 817 Z" fill="#c9a8ff"/><path d="M 650 810 L 655 810 L 655 817 L 650 817 Z" fill="#c9a8ff"/><path d="M 754 810 L 759 810 L 759 817 L 754 817 Z" fill="#c9a8ff"/><path d="M 767 810 L 772 810 L 772 817 L 767 817 Z M 806 810 L 811 810 L 811 817 L 806 817 Z M 806 825 L 811 825 L 811 832 L 806 832 Z" fill="#c9a8ff"/><path d="M 858 810 L 863 810 L 863 817 L 858 817 Z M 884 810 L 889 810 L 889 817 L 884 817 Z" fill="#c9a8ff"/><path d="M 1456 810 L 1461 810 L 1461 817 L 1456 817 Z" fill="#c9a8ff"/><path d="M 1521 810 L 1526 810 L 1526 817 L 1521 817 Z M 1560 810 L 1565 810 L 1565 817 L 1560 817 Z M 1521 825 L 1526 825 L 1526 832 L 1521 832 Z" fill="#c9a8ff"/><path d="M 39 765 L 44 765 L 44 772 L 39 772 Z M 0 780 L 5 780 L 5 787 L 0 787 Z M 13 780 L 18 780 L 18 787 L 13 787 Z M 26 780 L 31 780 L 31 787 L 26 787 Z" fill="#ffb3d9"/><path d="M 78 765 L 83 765 L 83 772 L 78 772 Z M 104 780 L 109 780 L 109 787 L 104 787 Z" fill="#ffb3d9"/><path d="M 156 765 L 161 765 L 161 772 L 156 772 Z" fill="#ffb3d9"/><path d="M 247 765 L 252 765 L 252 772 L 247 772 Z M 208 780 L 213 780 L 213 787 L 208 787 Z" fill="#ffb3d9"/><path d="M 312 780 L 317 780 L 317 787 L 312 787 Z M 338 780 L 343 780 L 343 787 L 338 787 Z" fill="#ffb3d9"/><path d="M 455 780 L 460 780 L 460 787 L 455 787 Z" fill="#ffb3d9"/><path d="M 676 780 L 681 780 L 681 787 L 676 787 Z" fill="#ffb3d9"/><path d="M 819 780 L 824 780 L 824 787 L 819 787 Z" fill="#ffb3d9"/><path d="M 962 780 L 967 780 L 967 787 L 962 787 Z" fill="#ffb3d9"/><path d="M 975 780 L 980 780 L 980 787 L 975 787 Z M 988 780 L 993 780 L 993 787 L 988 787 Z" fill="#ffb3d9"/><path d="M 1092 765 L 1097 765 L 1097 772 L 1092 772 Z M 1092 780 L 1097 780 L 1097 787 L 1092 787 Z" fill="#ffb3d9"/><path d="M 1105 780 L 1110 780 L 1110 787 L 1105 787 Z" fill="#ffb3d9"/><path d="M 1196 780 L 1201 780 L 1201 787 L 1196 787 Z M 1235 780 L 1240 780 L 1240 787 L 1235 787 Z" fill="#ffb3d9"/><path d="M 1274 780 L 1279 780 L 1279 787 L 1274 787 Z" fill="#ffb3d9"/><path d="M 1313 780 L 1318 780 L 1318 787 L 1313 787 Z" fill="#ffb3d9"/><path d="M 1495 780 L 1500 780 L 1500 787 L 1495 787 Z" fill="#ffb3d9"/></svg>
