<svg xmlns="http://www.w3.org/2000/svg" viewBox="0 0 1672 941"><path d="M 39 795 L 44 795 L 44 802 L 39 802 Z" fill="#ff2e63"/><path d="M 78 750 L 83 750 L 83 757 L 78 757 Z" fill="#ff2e63"/><path d="M 104 795 L 109 795 L 109 802 L 104 802 Z" fill="#ff2e63"/><path d="M 143 795 L 148 795 L 148 802 L 143 802 Z" fill="#ff2e63"/><path d="M 221 810 L 226 810 L 226 817 L 221 817 Z" fill="#ff2e63"/><path d="M 390 780 L 395 780 L 395 787 L 390 787 Z" fill="#ff2e63"/><path d="M 455 795 L 460 795 L 460 802 L 455 802 Z" fill="#ff2e63"/><path d="M 611 810 L 616 810 L 616 817 L 611 817 Z" fill="#ff2e63"/><path d="M 637 795 L 642 795 L 642 802 L 637 802 Z M 624 810 L 629 810 L 629 817 L 624 817 Z" fill="#ff2e63"/><path d="M 975 795 L 980 795 L 980 802 L 975 802 Z" fill="#ff2e63"/><path d="M 1131 795 L 1136 795 L 1136 802 L 1131 802 Z" fill="#ff2e63"/><path d="M 1274 780 L 1279 780 L 1279 787 L 1274 787 Z" fill="#ff2e63"/><path d="M 1404 795 L 1409 795 L 1409 802 L 1404 802 Z" fill="#ff2e63"/><path d="M 1456 810 L 1461 810 L 1461 817 L 1456 817 Z" fill="#ff2e63"/><path d="M 1573 795 L 1578 795 L 1578 802 L 1573 802 Z M 1521 810 L 1526 810 L 1526 817 L 1521 817 Z" fill="#ff2e63"/><path d="M 0 750 L 5 750 L 5 757 L 0 757 Z" fill="#ff5c8a"/><path d="M 143 765 L 148 765 L 148 772 L 143 772 Z M 195 795 L 200 795 L 200 802 L 195 802 Z M 195 810 L 200 810 L 200 817 L 195 817 Z" fill="#ff5c8a"/><path d="M 221 795 L 226 795 L 226 802 L 221 802 Z" fill="#ff5c8a"/><path d="M 325 795 L 330 795 L 330 802 L 325 802 Z" fill="#ff5c8a"/><path d="M 533 810 L 538 810 L 538 817 L 533 817 Z" fill="#ff5c8a"/><path d="M 806 810 L 811 810 L 811 817 L 806 817 Z" fill="#ff5c8a"/><path d="M 832 780 L 837 780 L 837 787 L 832 787 Z M 832 810 L 837 810 L 837 817 L 832 817 Z M 871 810 L 876 810 L 876 817 L 871 817 Z" fill="#ff5c8a"/><path d="M 1040 795 L 1045 795 L 1045 802 L 1040 802 Z" fill="#ff5c8a"/><path d="M 1144 795 L 1149 795 L 1149 802 L 1144 802 Z" fill="#ff5c8a"/><path d="M 1378 795 L 1383 795 L 1383 802 L 1378 802 Z" fill="#ff5c8a"/><path d="M 26 810 L 31 810 L 31 817 L 26 817 Z" fill="#ff9fbf"/><path d="M 117 795 L 122 795 L 122 802 L 117 802 Z" fill="#ff9fbf"/><path d="M 247 780 L 252 780 L 252 787 L 247 787 Z" fill="#ff9fbf"/><path d="M 611 795 L 616 795 L 616 802 L 611 802 Z" fill="#ff9fbf"/><path d="M 702 795 L 707 795 L 707 802 L 702 802 Z" fill="#ff9fbf"/><path d="M 780 825 L 785 825 L 785 832 L 780 832 Z" fill="#ff9fbf"/><path d="M 1261 780 L 1266 780 L 1266 787 L 1261 787 Z" fill="#ff9fbf"/><path d="M 1365 780 L 1370 780 L 1370 787 L 1365 787 Z" fill="#ff9fbf"/><path d="M 1456 795 L 1461 795 L 1461 802 L 1456 802 Z" fill="#ff9fbf"/></svg>
