<svg xmlns="http://www.w3.org/2000/svg" viewBox="0 0 1672 941"><path d="M 26 810 L 31 810 L 31 817 L 26 817 Z" fill="#7dfff0"/><path d="M 1495 795 L 1500 795 L 1500 802 L 1495 802 Z" fill="#7dfff0"/><path d="M 533 810 L 538 810 L 538 817 L 533 817 Z" fill="#9be7ff"/><path d="M 1378 780 L 1383 780 L 1383 787 L 1378 787 Z" fill="#9be7ff"/><path d="M 377 765 L 382 765 L 382 772 L 377 772 Z" fill="#b9a8ff"/><path d="M 1248 780 L 1253 780 L 1253 787 L 1248 787 Z" fill="#c8ff8a"/><path d="M 130 765 L 135 765 L 135 772 L 130 772 Z" fill="#ffab7a"/><path d="M 195 810 L 200 810 L 200 817 L 195 817 Z" fill="#ffab7a"/><path d="M 624 810 L 629 810 L 629 817 L 624 817 Z" fill="#ffab7a"/><path d="M 1092 795 L 1097 795 L 1097 802 L 1092 802 Z" fill="#ffab7a"/><path d="M 52 750 L 57 750 L 57 757 L 52 757 Z" fill="#ffb35c"/><path d="M 78 795 L 83 795 L 83 802 L 78 802 Z" fill="#ffb35c"/><path d="M 1053 795 L 1058 795 L 1058 802 L 1053 802 Z" fill="#ffb35c"/><path d="M 0 765 L 5 765 L 5 772 L 0 772 Z" fill="#ffc766"/><path d="M 1157 780 L 1162 780 L 1162 787 L 1157 787 Z" fill="#ffc766"/><path d="M 507 810 L 512 810 L 512 817 L 507 817 Z M 546 810 L 551 810 L 551 817 L 546 817 Z" fill="#ffd98a"/><path d="M 39 795 L 44 795 L 44 802 L 39 802 Z" fill="#ffe25c"/><path d="M 936 795 L 941 795 L 941 802 L 936 802 Z" fill="#ffe25c"/><path d="M 1482 780 L 1487 780 L 1487 787 L 1482 787 Z" fill="#ffe25c"/><path d="M 13 810 L 18 810 L 18 817 L 13 817 Z" fill="#ffe9a8"/><path d="M 234 795 L 239 795 L 239 802 L 234 802 Z" fill="#ffe9a8"/><path d="M 1352 780 L 1357 780 L 1357 787 L 1352 787 Z" fill="#ffe9a8"/><path d="M 1391 780 L 1396 780 L 1396 787 L 1391 787 Z" fill="#ffe9a8"/><path d="M 52 780 L 57 780 L 57 787 L 52 787 Z" fill="#fff2c8"/><path d="M 1495 780 L 1500 780 L 1500 787 L 1495 787 Z M 1508 810 L 1513 810 L 1513 817 L 1508 817 Z" fill="#fff2c8"/></svg>
